TITLE ""
FILE "1Q_t_1968-1977.mp3" MP3
  TRACK 01 AUDIO
    TITLE "1Q_t_1968-1977_01"
    INDEX 01 00:00:00
  TRACK 02 AUDIO
    TITLE "1Q_t_1968-1977_02"
    INDEX 01 00:01:10
  TRACK 03 AUDIO
    TITLE "1Q_t_1968-1977_03"
    INDEX 01 00:01:22
  TRACK 04 AUDIO
    TITLE "1Q_t_1968-1977_04"
    INDEX 01 00:03:54
  TRACK 05 AUDIO
    TITLE "1Q_t_1968-1977_05"
    INDEX 01 00:03:65
  TRACK 06 AUDIO
    TITLE "1Q_t_1968-1977_06"
    INDEX 01 00:08:27
  TRACK 07 AUDIO
    TITLE "1Q_t_1968-1977_07"
    INDEX 01 00:08:74
  TRACK 08 AUDIO
    TITLE "1Q_t_1968-1977_08"
    INDEX 01 00:10:13
  TRACK 09 AUDIO
    TITLE "1Q_t_1968-1977_09"
    INDEX 01 00:10:22
  TRACK 10 AUDIO
    TITLE "1Q_t_1968-1977_10"
    INDEX 01 00:11:30
  TRACK 11 AUDIO
    TITLE "1Q_t_1968-1977_11"
    INDEX 01 00:11:39
  TRACK 12 AUDIO
    TITLE "1Q_t_1968-1977_12"
    INDEX 01 00:16:56
  TRACK 13 AUDIO
    TITLE "1Q_t_1968-1977_13"
    INDEX 01 00:17:28
  TRACK 14 AUDIO
    TITLE "1Q_t_1968-1977_14"
    INDEX 01 00:18:47
  TRACK 15 AUDIO
    TITLE "1Q_t_1968-1977_15"
    INDEX 01 00:18:59
  TRACK 16 AUDIO
    TITLE "1Q_t_1968-1977_16"
    INDEX 01 00:21:38
  TRACK 17 AUDIO
    TITLE "1Q_t_1968-1977_17"
    INDEX 01 00:21:46
  TRACK 18 AUDIO
    TITLE "1Q_t_1968-1977_18"
    INDEX 01 00:26:41
  TRACK 19 AUDIO
    TITLE "1Q_t_1968-1977_19"
    INDEX 01 00:27:15
  TRACK 20 AUDIO
    TITLE "1Q_t_1968-1977_20"
    INDEX 01 00:28:42
  TRACK 21 AUDIO
    TITLE "1Q_t_1968-1977_21"
    INDEX 01 00:28:52
  TRACK 22 AUDIO
    TITLE "1Q_t_1968-1977_22"
    INDEX 01 00:29:75
  TRACK 23 AUDIO
    TITLE "1Q_t_1968-1977_23"
    INDEX 01 00:30:07
  TRACK 24 AUDIO
    TITLE "1Q_t_1968-1977_24"
    INDEX 01 00:35:13
  TRACK 25 AUDIO
    TITLE "1Q_t_1968-1977_25"
    INDEX 01 00:35:60
  TRACK 26 AUDIO
    TITLE "1Q_t_1968-1977_26"
    INDEX 01 00:36:75
  TRACK 27 AUDIO
    TITLE "1Q_t_1968-1977_27"
    INDEX 01 00:37:09
  TRACK 28 AUDIO
    TITLE "1Q_t_1968-1977_28"
    INDEX 01 00:38:40
  TRACK 29 AUDIO
    TITLE "1Q_t_1968-1977_29"
    INDEX 01 00:38:48
  TRACK 30 AUDIO
    TITLE "1Q_t_1968-1977_30"
    INDEX 01 00:42:66
  TRACK 31 AUDIO
    TITLE "1Q_t_1968-1977_31"
    INDEX 01 00:43:40
  TRACK 32 AUDIO
    TITLE "1Q_t_1968-1977_32"
    INDEX 01 00:44:60
  TRACK 33 AUDIO
    TITLE "1Q_t_1968-1977_33"
    INDEX 01 00:44:72
  TRACK 34 AUDIO
    TITLE "1Q_t_1968-1977_34"
    INDEX 01 00:46:12
  TRACK 35 AUDIO
    TITLE "1Q_t_1968-1977_35"
    INDEX 01 00:46:22
  TRACK 36 AUDIO
    TITLE "1Q_t_1968-1977_36"
    INDEX 01 00:51:33
  TRACK 37 AUDIO
    TITLE "1Q_t_1968-1977_37"
    INDEX 01 00:52:03
  TRACK 38 AUDIO
    TITLE "1Q_t_1968-1977_38"
    INDEX 01 00:53:20
  TRACK 39 AUDIO
    TITLE "1Q_t_1968-1977_39"
    INDEX 01 00:53:34
  TRACK 40 AUDIO
    TITLE "1Q_t_1968-1977_40"
    INDEX 01 00:56:34
  TRACK 41 AUDIO
    TITLE "1Q_t_1968-1977_41"
    INDEX 01 00:56:44
  TRACK 42 AUDIO
    TITLE "1Q_t_1968-1977_42"
    INDEX 01 01:00:56
  TRACK 43 AUDIO
    TITLE "1Q_t_1968-1977_43"
    INDEX 01 01:01:30
  TRACK 44 AUDIO
    TITLE "1Q_t_1968-1977_44"
    INDEX 01 01:02:64
  TRACK 45 AUDIO
    TITLE "1Q_t_1968-1977_45"
    INDEX 01 01:02:72
  TRACK 46 AUDIO
    TITLE "1Q_t_1968-1977_46"
    INDEX 01 01:06:35
  TRACK 47 AUDIO
    TITLE "1Q_t_1968-1977_47"
    INDEX 01 01:06:44
  TRACK 48 AUDIO
    TITLE "1Q_t_1968-1977_48"
    INDEX 01 01:11:16
  TRACK 49 AUDIO
    TITLE "1Q_t_1968-1977_49"
    INDEX 01 01:11:61
  TRACK 50 AUDIO
    TITLE "1Q_t_1968-1977_50"
    INDEX 01 01:12:74
  TRACK 51 AUDIO
    TITLE "1Q_t_1968-1977_51"
    INDEX 01 01:13:09
  TRACK 52 AUDIO
    TITLE "1Q_t_1968-1977_52"
    INDEX 01 01:15:47
  TRACK 53 AUDIO
    TITLE "1Q_t_1968-1977_53"
    INDEX 01 01:15:59
  TRACK 54 AUDIO
    TITLE "1Q_t_1968-1977_54"
    INDEX 01 01:20:35
  TRACK 55 AUDIO
    TITLE "1Q_t_1968-1977_55"
    INDEX 01 01:21:07
  TRACK 56 AUDIO
    TITLE "1Q_t_1968-1977_56"
    INDEX 01 01:22:36
  TRACK 57 AUDIO
    TITLE "1Q_t_1968-1977_57"
    INDEX 01 01:22:45
  TRACK 58 AUDIO
    TITLE "1Q_t_1968-1977_58"
    INDEX 01 01:24:05
  TRACK 59 AUDIO
    TITLE "1Q_t_1968-1977_59"
    INDEX 01 01:24:15
  TRACK 60 AUDIO
    TITLE "1Q_t_1968-1977_60"
    INDEX 01 01:29:45
